<svg width="1511" height="562" viewBox="0 0 1511 562" fill="none" xmlns="http://www.w3.org/2000/svg">
<path fill-rule="evenodd" clip-rule="evenodd" d="M440.973 220.172C408.548 220.244 382.205 246.587 382.134 279.012C382.062 311.436 408.289 337.663 440.713 337.591L542.711 337.366C553.15 337.343 561.619 345.812 561.596 356.251C561.573 366.622 553.172 375.022 542.801 375.045L466.918 375.213C420.459 375.315 382.714 413.061 382.611 459.519L382.433 540.232C382.408 551.809 373.03 561.186 361.453 561.212C349.801 561.238 340.347 551.784 340.373 540.132L340.599 437.706C340.671 405.281 314.444 379.054 282.019 379.126C249.595 379.197 223.252 405.541 223.18 437.965L222.952 541.456C222.927 552.551 213.941 561.537 202.846 561.562C191.679 561.587 182.62 552.527 182.644 541.36L182.824 459.96C182.926 413.502 145.347 375.923 98.8885 376.025L19.6736 376.2C9.23497 376.223 0.766031 367.754 0.78911 357.316C0.812 346.945 9.21257 338.544 19.5835 338.521L123.507 338.292C155.931 338.22 182.275 311.877 182.346 279.453C182.418 247.028 156.191 220.801 123.766 220.873L21.7765 221.098C10.3669 221.123 1.11017 211.866 1.13538 200.457C1.16038 189.121 10.3425 179.939 21.6781 179.914L99.3218 179.743C145.781 179.64 183.526 141.895 183.629 95.4359L183.793 20.8611C183.818 9.76661 192.804 0.779954 203.899 0.755464C215.066 0.730811 224.125 9.7906 224.101 20.9574L223.881 120.758C223.809 153.183 250.036 179.41 282.46 179.338C314.885 179.267 341.228 152.924 341.299 120.499L341.518 21.3851C341.544 9.80828 350.921 0.430885 362.498 0.405326C374.15 0.379599 383.604 9.8333 383.578 21.4856L383.416 94.9949C383.314 141.454 420.893 179.033 467.351 178.93L541.301 178.767C552.71 178.742 561.967 187.998 561.942 199.408C561.917 210.744 552.735 219.926 541.399 219.951L440.973 220.172ZM340.945 280.855C341.018 247.947 314.4 221.328 281.491 221.401C248.583 221.473 221.847 248.21 221.774 281.118C221.701 314.026 248.32 340.645 281.228 340.572C314.136 340.5 340.873 313.763 340.945 280.855Z" fill="white"/>
<path d="M1365.12 443.359C1315.76 443.359 1283.45 419.575 1283.45 378.289C1283.45 337.452 1307.68 315.463 1359.74 305.141L1441.86 289.435C1441.86 252.636 1424.81 234.237 1390.7 234.237C1360.19 234.237 1343.13 248.149 1336.85 274.177L1287.49 271.035C1296.46 223.467 1333.71 193.849 1390.7 193.849C1455.32 193.849 1489.43 230.198 1489.43 292.127V385.021C1489.43 396.688 1493.47 400.278 1502.44 400.278H1510.97V437.974C1507.83 438.872 1500.2 439.321 1493.47 439.321C1466.09 439.321 1449.94 428.999 1445.9 401.176C1433.78 426.307 1402.37 443.359 1365.12 443.359ZM1373.2 405.664C1415.83 405.664 1441.86 378.738 1441.86 340.593V325.335L1372.3 338.798C1343.58 344.183 1332.81 355.402 1332.81 373.802C1332.81 394.445 1347.62 405.664 1373.2 405.664Z" fill="white"/>
<path d="M1165.24 443.359C1096.13 443.359 1051.71 393.996 1051.71 318.604C1051.71 243.212 1096.13 193.849 1165.24 193.849C1223.13 193.849 1263.97 225.262 1271.6 280.459L1222.24 283.152C1217.3 252.187 1195.31 235.135 1165.24 235.135C1124.86 235.135 1101.07 266.099 1101.07 318.604C1101.07 371.109 1124.86 402.073 1165.24 402.073C1195.31 402.073 1217.3 385.021 1222.24 350.466L1271.6 353.159C1263.97 407.907 1223.58 443.359 1165.24 443.359Z" fill="white"/>
<path d="M973.675 437.973V199.233H1021.24V437.973H973.675ZM972.777 164.678V117.109H1022.59V164.678H972.777Z" fill="white"/>
<path d="M706.11 437.972V119.353H825.032C897.731 119.353 940.812 156.6 940.812 218.529C940.812 280.906 897.731 318.602 825.032 318.602H754.576V437.972H706.11ZM823.686 274.624C867.664 274.624 890.551 255.327 890.551 218.529C890.551 182.179 867.664 163.78 823.686 163.78H754.576V274.624H823.686Z" fill="white"/>
</svg>
